<svg xmlns="http://www.w3.org/2000/svg" xmlns:xlink="http://www.w3.org/1999/xlink" viewBox="0,0,256,256" width="50px" height="50px" fill-rule="nonzero"><g fill="none" fill-rule="nonzero" stroke="none" stroke-width="1" stroke-linecap="butt" stroke-linejoin="miter" stroke-miterlimit="10" stroke-dasharray="" stroke-dashoffset="0" font-family="none" font-weight="none" font-size="none" text-anchor="none" style="mix-blend-mode: normal"><g transform="scale(2.56,2.56)"><circle cx="77" cy="13" r="1" fill="#f1bc19"></circle><circle cx="50" cy="50" r="37" fill="#e4e4f9"></circle><circle cx="83" cy="15" r="4" fill="#f1bc19"></circle><circle cx="87" cy="24" r="2" fill="#8889b9"></circle><circle cx="81" cy="76" r="2" fill="#fbcd59"></circle><circle cx="15" cy="63" r="4" fill="#fbcd59"></circle><circle cx="25" cy="87" r="2" fill="#8889b9"></circle><circle cx="18.5" cy="51.5" r="2.5" fill="#ffffff"></circle><circle cx="79.5" cy="33.5" r="1.5" fill="#ffffff"></circle><path d="M65.7,52.8v-8.6h3.712c0.766,0 1.388,0.622 1.388,1.388v5.824c0,0.766 -0.622,1.388 -1.388,1.388z" fill="#fdfcef"></path><path d="M69.412,44.9c0.379,0 0.688,0.309 0.688,0.688v5.824c0,0.379 -0.309,0.688 -0.688,0.688h-3.012v-7.2h3.012M69.412,43.5h-4.412v10h4.412c1.153,0 2.088,-0.935 2.088,-2.088v-5.824c0,-1.153 -0.935,-2.088 -2.088,-2.088z" fill="#472b29"></path><path d="M29.088,52.8c-0.766,0 -1.388,-0.622 -1.388,-1.388v-5.824c0,-0.766 0.622,-1.388 1.388,-1.388h3.712v8.6z" fill="#fdfcef"></path><path d="M32.1,44.9v7.2h-3.012c-0.379,0 -0.688,-0.309 -0.688,-0.688v-5.824c0,-0.379 0.309,-0.688 0.688,-0.688h3.012M33.5,43.5h-4.412c-1.153,0 -2.088,0.935 -2.088,2.088v5.824c0,1.153 0.935,2.088 2.088,2.088h4.412v-10z" fill="#472b29"></path><path d="M33,66.5l-2.75,-2.875c0,0 -6.5,-6.375 1.75,-12.625c3,5 7,10 7,10z" fill="#cbc9bc"></path><path d="M66.812,65.813l3.688,-4.375c0,0 4,-5.875 -4,-9.875c-3,5 -6.5,9.437 -6.5,9.437z" fill="#cbc9bc"></path><path d="M49.562,21.688c10.53,0 19.555,6.149 19.375,18.125c-0.187,12.5 -8.907,26.625 -19.437,26.625c-5.748,0 -10.995,-4.247 -14.594,-10.168c-2.994,-4.926 -4.849,-11.009 -4.906,-16.77c-0.118,-11.977 9.158,-17.813 19.687,-17.813" fill="#ffffff"></path><path d="M34.905,56.77c-0.168,0 -0.333,-0.085 -0.427,-0.24c-3.108,-5.111 -4.923,-11.316 -4.979,-17.024c-0.003,-0.276 0.219,-0.502 0.495,-0.505c0.002,0 0.003,0 0.005,0c0.274,0 0.497,0.221 0.5,0.495c0.055,5.533 1.815,11.553 4.832,16.515c0.144,0.236 0.069,0.544 -0.167,0.687c-0.08,0.048 -0.17,0.072 -0.259,0.072z" fill="#472b29"></path><path d="M49.5,66.938c-4.866,0 -9.684,-2.921 -13.564,-8.225c-0.163,-0.223 -0.115,-0.535 0.108,-0.698c0.222,-0.164 0.535,-0.115 0.698,0.108c3.688,5.039 8.219,7.814 12.758,7.814c10.444,0 18.756,-14.048 18.938,-26.133c0.004,-0.273 0.228,-0.492 0.5,-0.492c0.002,0 0.005,0 0.008,0c0.275,0.004 0.496,0.231 0.492,0.508c-0.189,12.54 -8.939,27.118 -19.938,27.118z" fill="#472b29"></path><path d="M36.25,60.813l9.727,-8.249c1.75,-1.484 4.312,-1.504 6.086,-0.047l10.25,8.421z" fill="#836f61"></path><path d="M62.313,61.438c-0.001,0 -0.002,0 -0.002,0l-26.063,-0.125c-0.21,-0.001 -0.396,-0.132 -0.468,-0.329c-0.071,-0.196 -0.014,-0.417 0.146,-0.552l7.854,-6.661c0.211,-0.178 0.526,-0.153 0.704,0.058c0.179,0.211 0.153,0.526 -0.058,0.704l-6.823,5.787l23.304,0.111l-9.163,-7.527c-1.589,-1.306 -3.878,-1.288 -5.445,0.042c-0.209,0.178 -0.525,0.153 -0.705,-0.059c-0.178,-0.211 -0.152,-0.526 0.059,-0.705c1.936,-1.639 4.766,-1.661 6.727,-0.052l10.25,8.421c0.163,0.135 0.225,0.357 0.153,0.557c-0.072,0.198 -0.26,0.33 -0.47,0.33z" fill="#472b29"></path><path d="M65.937,62.75c-6,-3 -11.437,-5.75 -11.437,-5.75l-2.597,-1.082c-1.837,-0.766 -3.91,-0.733 -5.722,0.091l-2.181,0.991c0,0 -5.375,2.813 -11.375,5.813c-6,3 3.375,11.187 3.375,11.187l13.009,-4.341l13.991,4.341c0,0 8.937,-8.25 2.937,-11.25z" fill="#ffffff"></path><path d="M32.625,63.313c-0.183,0 -0.359,-0.102 -0.447,-0.276c-0.123,-0.247 -0.023,-0.547 0.224,-0.671c5.927,-2.964 11.313,-5.78 11.367,-5.809l2.205,-1.003c1.933,-0.879 4.163,-0.913 6.121,-0.098l2.598,1.082c0.033,0.016 5.47,2.766 11.469,5.765c0.247,0.124 0.347,0.424 0.224,0.671c-0.123,0.248 -0.423,0.347 -0.671,0.224c-6.001,-3.001 -11.439,-5.751 -11.439,-5.751l-2.566,-1.067c-1.702,-0.71 -3.641,-0.679 -5.322,0.084l-2.181,0.991c-0.029,0.016 -5.423,2.837 -11.358,5.805c-0.073,0.036 -0.149,0.053 -0.224,0.053z" fill="#472b29"></path><path d="M45.906,65.049c0.183,-0.275 0.368,-0.546 0.562,-0.803c0.741,-0.977 1.619,-1.746 3.032,-1.746c0.4,0 0.763,0.062 1.095,0.172c0.256,0.085 0.494,0.199 0.717,0.336c2.305,1.411 3.08,5.278 5.938,5.278c1.937,0 2.737,0 4.359,0c1.873,0 3.391,1.511 3.391,3.375v0c0,1.864 -1.938,4.339 -5.328,4.339c-7.266,0 -5.328,-4.821 -10.111,-4.821c-4.904,0 -2.967,4.821 -10.232,4.821c-3.392,0 -5.329,-2.475 -5.329,-4.339v0c0,-1.864 1.518,-3.375 3.391,-3.375c1.579,0 3.391,0 4.359,0c1.811,0 2.777,-1.175 3.646,-2.466c0.172,-0.256 0.34,-0.515 0.51,-0.771" fill="#cbc9bc"></path><path d="M61.625,52.625c-2.354,0 -4.684,-1.55 -6.936,-3.048c-1,-0.666 -2.034,-1.354 -3.029,-1.873c-1.352,-0.705 -2.969,-0.705 -4.32,0c-0.779,0.406 -1.55,0.897 -2.2,1.324c-0.231,0.15 -0.541,0.088 -0.692,-0.144c-0.151,-0.232 -0.087,-0.541 0.144,-0.692c0.672,-0.44 1.469,-0.948 2.286,-1.375c1.643,-0.856 3.604,-0.856 5.246,0c1.042,0.543 2.099,1.247 3.12,1.927c2.129,1.416 4.329,2.881 6.382,2.881c0.95,0 1.776,-0.193 2.456,-0.574c0.239,-0.134 0.545,-0.05 0.681,0.192c0.135,0.24 0.049,0.545 -0.192,0.681c-0.832,0.465 -1.822,0.701 -2.946,0.701z" fill="#472b29"></path><path d="M38.368,52.529c-0.235,0 -0.445,-0.168 -0.49,-0.408c-0.051,-0.271 0.128,-0.533 0.399,-0.583c1.458,-0.271 2.953,-1.146 4.352,-2.051c0.229,-0.149 0.541,-0.086 0.691,0.148c0.149,0.231 0.083,0.541 -0.148,0.691c-1.484,0.96 -3.083,1.891 -4.711,2.193c-0.031,0.007 -0.062,0.01 -0.093,0.01z" fill="#472b29"></path><path d="M36.471,52.566c-0.022,0 -0.045,-0.001 -0.067,-0.005c-0.894,-0.119 -1.69,-0.416 -2.367,-0.884c-0.228,-0.156 -0.284,-0.468 -0.127,-0.695c0.157,-0.229 0.469,-0.285 0.695,-0.127c0.546,0.376 1.195,0.617 1.932,0.716c0.273,0.036 0.466,0.287 0.429,0.562c-0.034,0.251 -0.249,0.433 -0.495,0.433z" fill="#472b29"></path><ellipse cx="40" cy="72.25" rx="2.5" ry="1.75" fill="#8889b9"></ellipse><path d="M40,74.25c-1.517,0 -2.75,-0.897 -2.75,-2c0,-0.138 0.112,-0.25 0.25,-0.25c0.138,0 0.25,0.112 0.25,0.25c0,0.827 1.01,1.5 2.25,1.5c0.699,0 1.348,-0.215 1.779,-0.589c0.107,-0.089 0.264,-0.077 0.354,0.025c0.09,0.104 0.078,0.263 -0.025,0.354c-0.522,0.451 -1.291,0.71 -2.108,0.71z" fill="#472b29"></path><path d="M42.5,72.5c-0.138,0 -0.25,-0.112 -0.25,-0.25c0,-0.827 -1.01,-1.5 -2.25,-1.5c-0.543,0 -1.068,0.133 -1.479,0.374c-0.121,0.069 -0.273,0.029 -0.343,-0.089c-0.069,-0.119 -0.029,-0.272 0.089,-0.343c0.488,-0.285 1.103,-0.442 1.733,-0.442c1.517,0 2.75,0.897 2.75,2c0,0.138 -0.112,0.25 -0.25,0.25z" fill="#472b29"></path><path d="M59,70.5c1.381,0 2.5,0.784 2.5,1.75c0,0.966 -1.119,1.75 -2.5,1.75c-1.381,0 -2.5,-0.784 -2.5,-1.75c0,-0.966 1.119,-1.75 2.5,-1.75" fill="#8889b9"></path><path d="M59,74.25c-1.517,0 -2.75,-0.897 -2.75,-2c0,-0.138 0.112,-0.25 0.25,-0.25c0.138,0 0.25,0.112 0.25,0.25c0,0.827 1.01,1.5 2.25,1.5c0.699,0 1.348,-0.215 1.779,-0.589c0.107,-0.089 0.264,-0.077 0.354,0.025c0.09,0.104 0.078,0.263 -0.025,0.354c-0.522,0.451 -1.291,0.71 -2.108,0.71z" fill="#472b29"></path><path d="M61.5,72.5c-0.138,0 -0.25,-0.112 -0.25,-0.25c0,-0.827 -1.01,-1.5 -2.25,-1.5c-0.138,0 -0.25,-0.112 -0.25,-0.25c0,-0.138 0.112,-0.25 0.25,-0.25c1.517,0 2.75,0.897 2.75,2c0,0.138 -0.112,0.25 -0.25,0.25z" fill="#472b29"></path><path d="M57.395,71.158c-0.086,0 -0.169,-0.044 -0.216,-0.123c-0.069,-0.119 -0.029,-0.272 0.089,-0.343c0.487,-0.285 1.102,-0.442 1.732,-0.442c0.138,0 0.25,0.112 0.25,0.25c0,0.138 -0.112,0.25 -0.25,0.25c-0.543,0 -1.068,0.133 -1.479,0.374c-0.04,0.023 -0.083,0.034 -0.126,0.034z" fill="#472b29"></path><path d="M37.132,42.5h8.442c0.384,0 0.573,0.482 0.289,0.75c-1.278,1.208 -3.912,3.523 -6.031,4.25c-2.515,0.863 -3.581,-1.18 -3.827,-3.749c-0.064,-0.673 0.47,-1.251 1.127,-1.251z" fill="#8889b9"></path><path d="M38.737,48.202c-0.524,0 -1,-0.137 -1.423,-0.408c-0.992,-0.64 -1.617,-2.021 -1.808,-3.995c-0.044,-0.46 0.109,-0.92 0.421,-1.262c0.311,-0.342 0.75,-0.537 1.205,-0.537c0.276,0 0.5,0.224 0.5,0.5c0,0.276 -0.224,0.5 -0.5,0.5c-0.174,0 -0.343,0.076 -0.464,0.209c-0.124,0.137 -0.183,0.313 -0.165,0.494c0.157,1.635 0.638,2.789 1.354,3.25c0.474,0.305 1.066,0.329 1.813,0.074c2.008,-0.689 4.593,-2.963 5.73,-4.027h-6.025c-0.276,0 -0.5,-0.224 -0.5,-0.5c0,-0.276 0.224,-0.5 0.5,-0.5h6.199c0.38,0 0.716,0.229 0.858,0.585c0.143,0.359 0.055,0.763 -0.225,1.028c-1.383,1.307 -4.027,3.609 -6.214,4.359c-0.443,0.154 -0.863,0.23 -1.256,0.23zM45.574,43h0.01z" fill="#472b29"></path><path d="M61.868,42.5h-8.442c-0.384,0 -0.573,0.482 -0.289,0.75c1.278,1.208 3.912,3.523 6.031,4.25c2.515,0.863 3.581,-1.18 3.827,-3.749c0.064,-0.673 -0.47,-1.251 -1.127,-1.251z" fill="#8889b9"></path><path d="M60.259,48.2c-0.393,0 -0.812,-0.075 -1.253,-0.228c-2.188,-0.751 -4.832,-3.054 -6.213,-4.359c-0.279,-0.265 -0.368,-0.668 -0.226,-1.027c0.142,-0.357 0.479,-0.586 0.859,-0.586h8.442c0.455,0 0.894,0.195 1.204,0.537c0.312,0.342 0.465,0.802 0.421,1.262c-0.098,1.005 -0.306,1.859 -0.619,2.538c-0.116,0.251 -0.412,0.359 -0.664,0.244c-0.25,-0.116 -0.359,-0.413 -0.244,-0.664c0.267,-0.576 0.445,-1.321 0.531,-2.214c0.018,-0.182 -0.041,-0.357 -0.165,-0.494c-0.121,-0.133 -0.29,-0.209 -0.464,-0.209h-8.268c1.137,1.064 3.719,3.337 5.729,4.027c0.587,0.201 1.095,0.227 1.51,0.077c0.257,-0.094 0.546,0.039 0.64,0.3c0.095,0.26 -0.04,0.546 -0.3,0.64c-0.286,0.104 -0.594,0.156 -0.92,0.156zM53.426,43v0z" fill="#472b29"></path><rect x="30.5" y="38.5" width="38" height="2" fill="#836f61"></rect><path d="M49.5,22.4c8.992,0 18.6,4.558 18.6,17.35c0,3.649 -0.674,7.463 -1.949,11.03l-0.385,1.076l0.977,0.593c4.49,2.723 5.311,5.021 3.106,8.748l-2.246,2.771l-0.379,0.467l0.078,0.596c0.284,2.169 -2.803,6.367 -4.821,8.508l-0.031,0.033l-0.029,0.035c-0.458,0.558 -1.511,1.493 -3.421,1.493c-3.359,0 -3.965,-0.982 -4.732,-2.224c-0.723,-1.171 -1.713,-2.776 -4.706,-2.776c-3.054,0 -4.073,1.61 -4.816,2.785c-0.782,1.238 -1.4,2.215 -4.746,2.215c-2.152,0 -3.222,-1.189 -3.583,-1.7l-0.061,-0.086l-0.073,-0.076c-2.82,-2.938 -5.43,-6.834 -4.961,-8.595l0.19,-0.715l-0.483,-0.56l-1.937,-2.245c-1.145,-1.541 -1.566,-2.994 -1.252,-4.318c0.38,-1.599 1.871,-3.086 4.314,-4.3l1.114,-0.553l-0.419,-1.172c-1.275,-3.567 -1.949,-7.381 -1.949,-11.03c0,-12.792 9.608,-17.35 18.6,-17.35M49.5,21c-11.046,0 -20,6.186 -20,18.75c0,3.924 0.732,7.868 2.031,11.501c-5.531,2.749 -6.531,6.749 -3.531,10.749l1.969,2.282c-0.879,3.303 4.41,8.993 5.304,9.924c0.884,1.254 2.5,2.294 4.727,2.294c7.5,0 4.5,-5 9.562,-5c4.938,0 1.938,5 9.438,5c2.051,0 3.583,-0.884 4.503,-2.003c0.046,-0.049 5.667,-5.985 5.187,-9.647l2.31,-2.85c3,-5 1,-8 -3.531,-10.749c1.299,-3.634 2.031,-7.577 2.031,-11.501c0,-12.564 -8.954,-18.75 -20,-18.75z" fill="#472b29"></path><ellipse cx="49.5" cy="69" rx="3" ry="4.5" fill="#836f61"></ellipse><path d="M49.5,74c-1.963,0 -3.5,-2.196 -3.5,-5c0,-2.804 1.537,-5 3.5,-5c1.963,0 3.5,2.196 3.5,5c0,2.804 -1.537,5 -3.5,5zM49.5,65c-1.355,0 -2.5,1.832 -2.5,4c0,2.168 1.145,4 2.5,4c1.355,0 2.5,-1.832 2.5,-4c0,-2.168 -1.145,-4 -2.5,-4z" fill="#472b29"></path><path d="M30.5,57c-0.183,0 -0.359,-0.102 -0.447,-0.276c-0.123,-0.247 -0.023,-0.547 0.224,-0.671l2,-1c0.248,-0.124 0.547,-0.023 0.671,0.224c0.123,0.247 0.023,0.547 -0.224,0.671l-2,1c-0.073,0.035 -0.149,0.052 -0.224,0.052z" fill="#472b29"></path><path d="M31.5,59c-0.183,0 -0.359,-0.102 -0.447,-0.276c-0.123,-0.247 -0.023,-0.547 0.224,-0.671l2,-1c0.248,-0.125 0.547,-0.023 0.671,0.224c0.123,0.247 0.023,0.547 -0.224,0.671l-2,1c-0.073,0.035 -0.149,0.052 -0.224,0.052z" fill="#472b29"></path><path d="M32.5,61c-0.183,0 -0.359,-0.102 -0.447,-0.276c-0.123,-0.247 -0.023,-0.547 0.224,-0.671l2,-1c0.247,-0.123 0.547,-0.023 0.671,0.224c0.123,0.247 0.023,0.547 -0.224,0.671l-2,1c-0.073,0.035 -0.149,0.052 -0.224,0.052z" fill="#472b29"></path><path d="M68.5,57c-0.075,0 -0.151,-0.017 -0.224,-0.053l-2,-1c-0.247,-0.124 -0.347,-0.424 -0.224,-0.671c0.124,-0.246 0.424,-0.347 0.671,-0.224l2,1c0.247,0.124 0.347,0.424 0.224,0.671c-0.088,0.175 -0.264,0.277 -0.447,0.277z" fill="#472b29"></path><path d="M67.5,59c-0.075,0 -0.151,-0.017 -0.224,-0.053l-2,-1c-0.247,-0.124 -0.347,-0.424 -0.224,-0.671c0.125,-0.247 0.424,-0.348 0.671,-0.224l2,1c0.247,0.124 0.347,0.424 0.224,0.671c-0.088,0.175 -0.264,0.277 -0.447,0.277z" fill="#472b29"></path><path d="M66.5,61c-0.075,0 -0.151,-0.017 -0.224,-0.053l-2,-1c-0.247,-0.124 -0.347,-0.424 -0.224,-0.671c0.124,-0.246 0.425,-0.345 0.671,-0.224l2,1c0.247,0.124 0.347,0.424 0.224,0.671c-0.088,0.175 -0.264,0.277 -0.447,0.277z" fill="#472b29"></path><rect x="48.5" y="51" width="1" height="4" fill="#472b29"></rect><rect x="51" y="52" width="1" height="4" fill="#472b29"></rect><rect x="46" y="52" width="1" height="4" fill="#472b29"></rect><rect x="43" y="54.5" width="1" height="2.5" fill="#472b29"></rect><g fill="#472b29"><rect x="54" y="54.5" width="1" height="2.5"></rect></g><g fill="#472b29"><path d="M65,72.161c-0.276,0 -0.5,-0.224 -0.5,-0.5c0,-1.585 -1.297,-2.875 -2.891,-2.875h-4.359c-1.963,0 -3.03,-1.522 -4.063,-2.994c-1.008,-1.436 -1.959,-2.792 -3.687,-2.792c-0.858,0 -1.537,0.317 -2.201,1.028c-0.187,0.202 -0.505,0.213 -0.706,0.024c-0.202,-0.188 -0.213,-0.504 -0.024,-0.706c0.856,-0.918 1.787,-1.346 2.931,-1.346c2.247,0 3.447,1.71 4.505,3.218c0.968,1.378 1.803,2.568 3.245,2.568h4.359c2.146,0 3.891,1.738 3.891,3.875c0,0.277 -0.224,0.5 -0.5,0.5z"></path></g><g fill="#472b29"><path d="M43.665,68.227c-0.162,0 -0.321,-0.079 -0.417,-0.225c-0.152,-0.23 -0.089,-0.54 0.142,-0.692c0.763,-0.504 1.313,-1.342 1.896,-2.229l0.127,-0.192c0.151,-0.231 0.461,-0.296 0.692,-0.142c0.23,0.151 0.294,0.462 0.142,0.692l-0.125,0.19c-0.612,0.933 -1.246,1.896 -2.181,2.514c-0.086,0.057 -0.181,0.084 -0.276,0.084z"></path></g><g fill="#472b29"><path d="M34,72.161c-0.276,0 -0.5,-0.224 -0.5,-0.5c0,-2.137 1.745,-3.875 3.891,-3.875h4.359c0.276,0 0.5,0.224 0.5,0.5c0,0.276 -0.224,0.5 -0.5,0.5h-4.359c-1.594,0 -2.891,1.29 -2.891,2.875c0,0.277 -0.224,0.5 -0.5,0.5z"></path></g><g fill="#472b29"><path d="M68.5,38.73h-17.937c-0.138,0 -0.25,-0.112 -0.25,-0.25c0,-0.138 0.112,-0.25 0.25,-0.25h17.937c0.138,0 0.25,0.112 0.25,0.25c0,0.138 -0.112,0.25 -0.25,0.25z"></path></g><g fill="#472b29"><path d="M49.25,38.73h-8.188c-0.138,0 -0.25,-0.112 -0.25,-0.25c0,-0.138 0.112,-0.25 0.25,-0.25h8.188c0.138,0 0.25,0.112 0.25,0.25c0,0.138 -0.112,0.25 -0.25,0.25z"></path></g><g fill="#472b29"><path d="M38.875,38.73h-6.875c-0.138,0 -0.25,-0.112 -0.25,-0.25c0,-0.138 0.112,-0.25 0.25,-0.25h6.875c0.138,0 0.25,0.112 0.25,0.25c0,0.138 -0.112,0.25 -0.25,0.25z"></path></g><g fill="#472b29"><path d="M43.438,40.75h-12.938c-0.138,0 -0.25,-0.112 -0.25,-0.25c0,-0.138 0.112,-0.25 0.25,-0.25h12.938c0.138,0 0.25,0.112 0.25,0.25c0,0.138 -0.113,0.25 -0.25,0.25z"></path></g><g fill="#472b29"><path d="M68.5,40.75h-22.187c-0.138,0 -0.25,-0.112 -0.25,-0.25c0,-0.138 0.112,-0.25 0.25,-0.25h22.187c0.138,0 0.25,0.112 0.25,0.25c0,0.138 -0.112,0.25 -0.25,0.25z"></path></g><g fill="#472b29"><path d="M43.602,25.945c-0.217,0 -0.417,-0.142 -0.48,-0.36c-0.077,-0.266 0.076,-0.543 0.341,-0.62c1.599,-0.464 3.371,-0.748 5.27,-0.846c0.313,-0.032 0.511,0.198 0.524,0.474c0.015,0.275 -0.197,0.511 -0.474,0.524c-1.82,0.094 -3.517,0.366 -5.041,0.809c-0.048,0.013 -0.095,0.019 -0.14,0.019z"></path></g><g fill="#472b29"><path d="M34.244,34.882c-0.028,0 -0.056,-0.002 -0.084,-0.007c-0.272,-0.046 -0.456,-0.304 -0.41,-0.576c0.037,-0.22 0.975,-5.403 7.046,-8.321c0.249,-0.12 0.548,-0.015 0.667,0.233c0.12,0.249 0.016,0.548 -0.233,0.667c-5.61,2.697 -6.485,7.538 -6.493,7.587c-0.042,0.244 -0.254,0.417 -0.493,0.417z"></path></g></g></g></svg>